<svg xmlns="http://www.w3.org/2000/svg" xmlns:xlink="http://www.w3.org/1999/xlink" width="2000" zoomAndPan="magnify" viewBox="0 0 1500 1499.999933" height="2000" preserveAspectRatio="xMidYMid meet" version="1.0"><path fill="#ED9121" d="M 1215.183594 1243.296875 C 1243.085938 1277.1875 1274.125 1306.808594 1310.285156 1333.789062 C 1297.875 1336.554688 1287.984375 1333.769531 1278.261719 1331.59375 C 1212.234375 1316.808594 1154.230469 1285.53125 1100.648438 1245.042969 C 1046.234375 1203.925781 1000.4375 1154.023438 954.757812 1103.890625 C 916.523438 1061.933594 880.425781 1017.746094 834.332031 983.671875 C 828.039062 979.023438 830.390625 974.273438 832.277344 969.230469 C 845.355469 934.261719 855.863281 898.523438 863.449219 861.996094 C 873.523438 813.488281 881.535156 764.648438 885.5 715.1875 C 887.332031 692.363281 889.5625 669.585938 889.433594 645.597656 C 880.023438 687.875 871.472656 729.253906 861.546875 770.304688 C 837.585938 869.402344 806.808594 965.976562 753.421875 1053.914062 C 680.277344 1174.390625 575.410156 1251.261719 438.160156 1283.941406 C 369.980469 1300.175781 301.097656 1304.867188 231.394531 1297.835938 C 227.03125 1297.394531 222.648438 1297.003906 218.855469 1294.398438 C 219.207031 1290.300781 222.71875 1289.792969 225.25 1288.390625 C 345.882812 1221.578125 454.921875 1139.53125 549.890625 1039.398438 C 652.058594 931.671875 731.542969 809.179688 786.351562 670.960938 C 818.226562 590.574219 839.71875 507.277344 856.390625 422.585938 C 869.265625 357.191406 879.292969 291.359375 886.609375 225.148438 C 889.644531 197.667969 893.050781 170.15625 893.363281 142.414062 C 893.527344 127.839844 902.605469 115.761719 916.042969 111.449219 C 928.875 107.332031 943.070312 111.910156 951.773438 122.980469 C 951.984375 123.246094 952.097656 123.664062 952.367188 123.804688 C 976.167969 136.363281 970.09375 159.542969 971.945312 179.707031 C 972.910156 190.246094 972.425781 200.917969 972.566406 211.527344 C 973.347656 269.707031 973.363281 327.910156 975.097656 386.058594 C 977.078125 452.359375 979.152344 518.699219 985.21875 584.789062 C 997.09375 714.21875 1021.304688 841.128906 1064.699219 963.957031 C 1093.074219 1044.269531 1128.507812 1121.164062 1176.386719 1191.945312 C 1188.285156 1209.539062 1201.140625 1226.410156 1215.183594 1243.296875 Z M 1215.183594 1243.296875 " fill-opacity="1" fill-rule="nonzero"/><path fill="#ED9121" d="M 616.589844 553.632812 C 616.441406 529.335938 615.621094 506.140625 612.152344 483.050781 C 609.621094 466.207031 613.832031 451.257812 629.605469 442.488281 C 643.621094 434.691406 658.023438 435.855469 671.234375 445.191406 C 681.769531 452.636719 686.148438 463.585938 687.109375 476.058594 C 690.871094 524.953125 690.152344 573.773438 685.261719 622.578125 C 678.730469 687.796875 666.074219 751.707031 644.195312 813.558594 C 608.085938 915.652344 551.277344 1004.488281 472.417969 1078.972656 C 465.457031 1085.546875 458.117188 1091.71875 450.890625 1098 C 450.191406 1098.605469 449.027344 1098.671875 448 1099.019531 C 445.292969 1095.773438 448.273438 1093.953125 449.71875 1092.074219 C 523.449219 996.273438 569.832031 888.105469 595.375 770.484375 C 610.820312 699.363281 617.496094 627.386719 616.589844 553.632812 Z M 616.589844 553.632812 " fill-opacity="1" fill-rule="nonzero"/></svg>