<svg xmlns="http://www.w3.org/2000/svg" xmlns:xlink="http://www.w3.org/1999/xlink" width="50" zoomAndPan="magnify" viewBox="0 0 37.5 37.499999" height="50" preserveAspectRatio="xMidYMid meet" version="1.0"><path fill="#ED9121" d="M 29.964844 30.59375 C 30.652344 31.429688 31.417969 32.160156 32.308594 32.824219 C 32.003906 32.890625 31.757812 32.824219 31.519531 32.769531 C 29.890625 32.40625 28.460938 31.636719 27.140625 30.636719 C 25.796875 29.625 24.667969 28.398438 23.542969 27.164062 C 22.601562 26.128906 21.710938 25.042969 20.574219 24.203125 C 20.417969 24.085938 20.476562 23.972656 20.523438 23.847656 C 20.84375 22.984375 21.105469 22.105469 21.292969 21.207031 C 21.539062 20.011719 21.738281 18.808594 21.835938 17.589844 C 21.878906 17.03125 21.933594 16.46875 21.933594 15.878906 C 21.699219 16.917969 21.488281 17.9375 21.246094 18.949219 C 20.652344 21.390625 19.894531 23.765625 18.578125 25.933594 C 16.773438 28.898438 14.1875 30.792969 10.804688 31.59375 C 9.125 31.996094 7.425781 32.109375 5.707031 31.9375 C 5.597656 31.925781 5.492188 31.917969 5.398438 31.851562 C 5.40625 31.753906 5.492188 31.738281 5.554688 31.707031 C 8.53125 30.058594 11.21875 28.039062 13.558594 25.574219 C 16.078125 22.921875 18.039062 19.90625 19.390625 16.503906 C 20.175781 14.523438 20.707031 12.472656 21.117188 10.386719 C 21.433594 8.777344 21.683594 7.15625 21.863281 5.527344 C 21.9375 4.847656 22.019531 4.171875 22.027344 3.488281 C 22.03125 3.128906 22.257812 2.832031 22.589844 2.726562 C 22.90625 2.625 23.253906 2.738281 23.46875 3.011719 C 23.472656 3.015625 23.476562 3.027344 23.484375 3.03125 C 24.070312 3.339844 23.921875 3.910156 23.964844 4.40625 C 23.992188 4.667969 23.980469 4.929688 23.980469 5.191406 C 24 6.621094 24 8.054688 24.042969 9.488281 C 24.09375 11.121094 24.144531 12.753906 24.292969 14.382812 C 24.585938 17.566406 25.183594 20.691406 26.253906 23.71875 C 26.953125 25.695312 27.828125 27.585938 29.007812 29.332031 C 29.300781 29.765625 29.617188 30.179688 29.964844 30.59375 Z M 29.964844 30.59375 " fill-opacity="1" fill-rule="nonzero"/><path fill="#ED9121" d="M 15.203125 13.613281 C 15.199219 13.015625 15.179688 12.445312 15.09375 11.875 C 15.03125 11.460938 15.136719 11.09375 15.523438 10.878906 C 15.871094 10.683594 16.226562 10.714844 16.550781 10.945312 C 16.8125 11.128906 16.917969 11.398438 16.941406 11.703125 C 17.035156 12.90625 17.019531 14.109375 16.898438 15.3125 C 16.738281 16.917969 16.425781 18.492188 15.886719 20.015625 C 14.996094 22.527344 13.59375 24.714844 11.648438 26.550781 C 11.476562 26.710938 11.296875 26.863281 11.117188 27.015625 C 11.101562 27.03125 11.074219 27.035156 11.046875 27.042969 C 10.980469 26.960938 11.054688 26.917969 11.089844 26.871094 C 12.90625 24.511719 14.050781 21.847656 14.679688 18.953125 C 15.0625 17.203125 15.226562 15.429688 15.203125 13.613281 Z M 15.203125 13.613281 " fill-opacity="1" fill-rule="nonzero"/></svg>